<svg width="250" height="250" id="hexatar-preview" version="1.1" xmlns="http://www.w3.org/2000/svg" xmlns:xlink="http://www.w3.org/1999/xlink" x="0px" y="0px" viewBox="0 0 512 512" style="enable-background:new 0 0 512 512;" xml:space="preserve">
    <g id="hexatar-background"><g class="hexatar-base">
		<rect class="col-obj" x="-0.003" y="0.002" style="fill: rgb(174, 222, 228);" width="512" height="512"></rect>
		<path class="light-obj" style="opacity: 0.9; fill: rgb(212, 238, 241);" d="M281.14,0.239h-39.041l19.523,249.409L281.14,0.239z M0.236,235.926 v27.461l261.371-13.732L0.236,235.926z M511.76,429.885l-250.13-180.221l250.13,232.994V429.885z M0.236,6.17v55.146 l261.381,188.336L0.236,6.17z M0.236,437.998v55.147l261.376-243.476L0.236,437.998z M261.631,249.664L261.631,249.664 L261.631,249.664L261.631,249.664z M158.761,0.239l102.856,249.409L110.949,0.239H58.828l202.793,249.416L200.614,0.239H158.761z M511.76,16.659L261.636,249.648L464.429,0.239h-52.13L261.636,249.644L364.496,0.239h-41.858l-61.008,249.414l-0.009,0.002 l0.005,0.005h0.005l250.13,136.502v-35.087L261.645,249.664l250.115,69.233V290.72l-250.13-41.065l250.13,13.142v-26.282 l-250.115,13.14l250.115-41.06v-28.177l-250.125,69.237L511.76,148.24v-35.092L261.659,249.636L511.76,69.43V16.659z M0.236,107.01v36.666l261.373,105.977L0.236,177.303v29.445l261.385,42.907l-0.011-0.003L0.236,107.01z M0.236,392.303 L261.617,249.66L0.236,355.644V392.303z M48.51,511.763h54.783l158.324-262.085L153.534,511.763h43.989l64.09-262.02 l-20.507,262.02h41.032l-20.511-262.08l64.104,262.08h43.988L261.631,249.669L419.96,511.763h54.778L261.63,249.665l-0.004,0.004 l-0.005-0.005l0.005,0.014l-0.005,0.005v-0.019h0.008l-0.004-0.005h-0.005L48.51,511.763z M0.236,322.014l261.376-72.354 L0.236,292.571V322.014z M261.612,249.66h0.005h0.005v-0.005L261.612,249.66z"></path>
	</g></g>
	<g id="hexatar-hair-rear"></g>
	<g id="hexatar-bodies" transform="matrix(1.76,0,0,1.76,-194.7929,-321.2843)">
		<g id="hexatar-body">
			<polygon class="col-obj" style="fill: rgb(250, 214, 185);" points="380.515,465 301,451 301,334 211,334 211,451 131.636,465 94.115,512   418.035,512 "></polygon>
			<polygon class="shadow-obj" style="fill: rgb(247, 186, 137);" points="380.541,465 301,451 301,334 256,334 256,512 418.062,512 "></polygon>
			<polygon id="hexatar-neck-control" class="shadow-obj-2x" style="opacity: 0.5; fill: rgb(244, 158, 89);" points="301.054,387.482 255.998,427.693 210.942,384.615  210.942,333.485 301.054,333.485 "></polygon>
		</g>
		<g id="hexatar-clothes"><g class="hexatar-base">
		<polygon class="col-obj" style="fill: rgb(255, 255, 255);" points="382.755,464.994 327.838,443.335 256.039,473.857 184.168,443.335  129.243,464.994 92.159,511.994 419.839,511.994"></polygon>
		<path class="shadow-obj" style="opacity: 0.4; fill: rgb(230, 230, 230);" d="M92.159,511.994L140.836,512l-11.37-47.006L92.159,511.994z M383.147,464.994L372.426,512l48.028-0.006L383.147,464.994z"></path>
		<polygon class="white-obj" style="fill:#FFFFFF;" points="320.755,426.47 301.023,426.47 301.023,446.694 256.019,473.857  210.971,446.489 211.014,426.47 191.282,426.47 182.739,443.064 221.607,510.26 256.02,473.891 293.495,510.263 329.298,443.064"></polygon>
		<path class="static-obj" style="opacity:0.8;fill:#CCCCCC;" d="M301.055,435.159l-0.143,11.644l14.491-11.644H301.055z M195.803,435.159l15.168,11.381l-0.028-11.381H195.803z"></path>
	</g></g>
	</g>
	<g id="hexatar-faces">
		<g id="hexatar-ears"><g class="hexatar-base">
		<g class="hexatar-ears-right"> 	<polygon class="col-obj" style="fill: rgb(250, 214, 185);" points="172.062,168.76 172.062,238.392 127.687,238.392 109.255,203.576  127.687,168.76"></polygon> 	<polygon class="shadow-obj" style="fill: rgb(247, 186, 137);" points="137.955,219.998 129.261,203.576 137.955,187.154 172.062,187.154  172.062,219.998"></polygon>
		</g>
		<g class="hexatar-ears-left"> 	<polygon class="shadow-obj" style="fill: rgb(247, 186, 137);" points="340.163,238.392 340.163,168.76 382.976,168.76 401.408,203.576  382.976,238.392"></polygon> 	<polygon class="shadow-obj-2x" style="fill: rgb(244, 158, 89);" points="372.708,187.154 381.402,203.576 372.708,219.998  340.163,219.998 340.163,187.154"></polygon>
		</g>
	</g></g>
		<g id="hexatar-face"><g class="hexatar-base">
		<polygon class="col-obj" style="fill: rgb(250, 214, 185);" points="256.005,7.17 153.605,71.355 153.605,219.006 153.605,347.979  194.223,386.05 256.005,386.05 317.786,386.05 358.404,347.979 358.404,218.864 358.404,71.355"></polygon>
		<polygon class="shadow-obj" style="fill: rgb(247, 186, 137);" points="317.786,386.05 358.404,347.979 358.404,218.863 358.404,71.355  256.005,7.17 256.005,386.05"></polygon>
	</g></g>
		<g id="hexatar-mouth"><g class="hexatar-base">
		<polygon class="col-obj" style="fill: rgb(223, 144, 129);" points="231.263,314.077 281.414,314.077 269.751,326.313 242.926,326.313"></polygon>
		<path class="shadow-obj" style="fill: rgb(213, 108, 88);" d="M224.709,304.077l-5.513,10h37.143l-5.52-10H224.709z M287.968,304.077h-26.11 l-5.52,10h37.143L287.968,304.077z"></path>
	</g></g>
		<g id="hexatar-beard"></g>
		<g id="hexatar-mustache"></g>
		<g id="hexatar-nose"><g class="hexatar-base">
		<polygon class="shadow-obj" style="fill: rgb(247, 186, 137);" points="273.806,239.281 262.701,172.435 249.3,172.435 238.196,239.281  232.482,239.281 227.055,255.459 233.14,256.886 237.108,254.618 250.825,264.281 260.963,264.281 274.253,255.561  278.008,257.916 284.946,255.459 279.519,239.281"></polygon>
		<polygon class="shadow-obj-2x" style="fill: rgb(244, 158, 89);" points="273.806,239.281 262.701,172.435 256.001,172.435 256.001,264.281  260.963,264.281 274.253,255.561 278.008,257.916 284.946,255.459 279.519,239.281"></polygon>
	</g></g>
		<g id="hexatar-eyeGroup">
			<g id="hexatar-eye"><g class="hexatar-base">
		<g class="hexatar-eye-right">
			<path class="white-obj" style="fill:#FFFFFF;" d="M231.23,202.269c0,0-2.541-10.22-3.353-11.487 c-17.807-4.397-36.478,0.708-37.813,1.264c-1.335,0.556-3.938,4.65-3.938,4.65s9.874,6.452,24.933,6.452 c15.059,0,17.752-1.099,17.752-1.099S229.801,203.423,231.23,202.269z"></path>
			<path class="shadow-obj" style="opacity: 0.3; fill: rgb(0, 0, 0);" d="M222.049,193.384c0.055-1.111-0.085-2.185-0.377-3.198 l-6.566-1.799l-11.987,0.925c-0.379,0.965-0.617,2.003-0.672,3.095c-0.27,5.413,3.899,10.019,9.312,10.289 C217.173,202.966,221.78,198.797,222.049,193.384z"></path>
			<circle class="col-obj" style="fill: rgb(17, 17, 17);" cx="212.56" cy="193.082" r="4.588"></circle>
			<circle class="white-obj" style="fill:#FFFFFF;" cx="208.351" cy="195.851" r="2.854"></circle>
			<path class="hair-col" style="fill: rgb(66, 66, 66);" d="M229.646,190.345c-16.498-3.85-31.796-1.94-39.838,0.65 c-2.876,3.854-3.681,5.701-3.681,5.701l3.898-3.898c0,0,18.672-6.249,37.909-1.302c0.66,2.748,2.724,9.819,2.724,9.819 S229.82,193.151,229.646,190.345z"></path>
			<path class="skin-col" style="fill: rgb(244, 158, 89);" d="M230.65,188.957c0,0-18.546-10.102-41.812-0.561 C213.313,182.318,230.65,188.957,230.65,188.957z"></path>
		</g>
		<g class="hexatar-eye-left">
			<path class="white-obj" style="fill:#FFFFFF;" d="M281.823,202.269c0,0,2.541-10.22,3.353-11.487 c17.807-4.397,36.478,0.708,37.813,1.264c1.335,0.556,3.938,4.65,3.938,4.65s-9.874,6.452-24.933,6.452 s-17.752-1.099-17.752-1.099S283.252,203.423,281.823,202.269z"></path>
			<path class="shadow-obj" style="opacity: 0.3; fill: rgb(0, 0, 0);" d="M291.004,193.384c-0.055-1.111,0.085-2.185,0.376-3.198 l6.566-1.799l11.987,0.925c0.379,0.965,0.617,2.003,0.672,3.095c0.27,5.413-3.899,10.019-9.312,10.289 C295.88,202.966,291.274,198.797,291.004,193.384z"></path>
			<circle class="col-obj" style="fill: rgb(17, 17, 17);" cx="300.493" cy="193.082" r="4.588"></circle>
			<circle class="white-obj" style="fill:#FFFFFF;" cx="296.751" cy="195.851" r="2.854"></circle>
			<path class="hair-col-2x" style="fill: rgb(40, 40, 40);" d="M282.397,201.315c0,0,2.064-7.071,2.724-9.819 c19.236-4.946,37.909,1.302,37.909,1.302l3.898,3.898c0,0-0.805-1.847-3.681-5.701c-8.042-2.59-23.341-4.5-39.838-0.65 C283.233,193.151,282.397,201.315,282.397,201.315z"></path>
			<path class="skin-col-2x" style="fill: rgb(241, 130, 41);" d="M324.215,188.396c-23.266-9.541-41.812,0.561-41.812,0.561 S299.74,182.318,324.215,188.396z"></path>
		</g>
	</g></g>
			<g id="hexatar-eyebrows"><g class="hexatar-base">
		<g class="hexatar-eyebrows-right"> 	<path class="col-obj" style="fill: rgb(66, 66, 66);" d="M182.905,167.553l10.957-3.576l10.134,3.022l3.458,1.732 c6.944,3.477,14.489,5.593,22.228,6.233l2.253,0.186l0,0c-1.587-5.55-6.403-9.567-12.147-10.135l-3.113-0.308l-0.753-0.276 c-7.834-2.874-16.175-4.111-24.506-3.636h0L182.905,167.553z"></path>
		</g>
		<g class="hexatar-eyebrows-left"> 	<path class="col-obj" style="fill: rgb(66, 66, 66);" d="M329.858,167.553l-10.957-3.576l-10.134,3.022l-3.458,1.732 c-6.944,3.477-14.489,5.593-22.228,6.233l-2.253,0.186l0,0c1.587-5.55,6.403-9.567,12.147-10.135l3.113-0.308l0.753-0.276 c7.834-2.874,16.175-4.111,24.506-3.636h0L329.858,167.553z"></path> 	<path class="shadow-obj" style="opacity: 0.4; fill: rgb(40, 40, 40);" d="M329.858,167.553l-10.957-3.576l-10.134,3.022l-3.458,1.732 c-6.944,3.477-14.489,5.593-22.228,6.233l-2.253,0.186l0,0c1.587-5.55,6.403-9.567,12.147-10.135l3.113-0.308l0.753-0.276 c7.834-2.874,16.175-4.111,24.506-3.636h0L329.858,167.553z"></path>
		</g>
	</g></g>
		</g>
		<g id="hexatar-hair-front"><g class="element-front">
			<polygon class="col-obj" style="fill: rgb(66, 66, 66);" points="256.211,6.901 153.602,70.984 153.602,175.3 172.582,175.3  172.582,80.4 309.162,106.291 339.49,73.22 339.49,175.3 358.403,175.3 358.403,70.984"></polygon>
			<polygon class="col-obj hair-ext" style="fill: rgb(66, 66, 66); display: block;" points="139.876,39.763 154.468,72.834 256.211,6.901"></polygon>
			<polygon class="shadow-obj" style="opacity: 0.4; fill: rgb(40, 40, 40);" points="256.211,6.901 256.211,96.253 309.162,106.291 339.49,73.22  339.49,175.3 358.403,175.3 358.403,70.984"></polygon>
		</g></g>
		<g id="hexatar-hat"></g>
		<g id="hexatar-eyeglasses"><g class="hexatar-base">
		<g class="hexatar-eyeglasses-right">
			<path class="col-obj" style="fill: rgb(33, 33, 33);" d="M256,184.966c-1.542-0.184-7.147-0.91-9.686-1.695 c-27.881-8.619-59.855-4.313-65.372-2.363c-2.181,0.771-5.952,3.875-7.843,5.49c-0.723,0.618-1.1,1.515-1.1,2.466v5.03 c0,1.487,1.125,2.783,2.566,3.148c0.177,5.826,1.419,9.463,2.779,10.528c18.454,14.464,63.289,10.873,69.724-6.637 c1.175-3.197,1.518-6.705,2.523-10.165c1.075-0.874,4.867-1.32,6.409-1.333V184.966z M242.214,200.882 c-12.212,15.665-47.363,12.356-56.942,6.588c-6.517-3.925-4.736-19.925,1.837-23.095c5.681-2.74,38.163-3.541,49.002-0.289 C248.556,187.82,243.424,199.33,242.214,200.882z"></path>
		</g>
		<g class="hexatar-eyeglasses-left">
			<path class="col-obj" style="fill: rgb(33, 33, 33);" d="M256,189.435c2,0.013,5.54,0.458,6.615,1.333 c1.004,3.46,1.553,6.969,2.728,10.165c6.435,17.51,51.212,21.101,69.666,6.637c1.36-1.066,2.483-4.702,2.66-10.528 c1.441-0.365,2.331-1.661,2.331-3.148v-5.03c0-0.951-0.2-1.848-0.923-2.466c-1.891-1.615-5.486-4.719-7.667-5.49 c-5.517-1.95-37.609-6.255-65.49,2.363c-2.539,0.785-7.921,1.511-9.921,1.695V189.435z M276.361,184.086 c10.839-3.251,43.32-2.451,49.002,0.289c6.573,3.17,8.354,19.17,1.837,23.095c-9.58,5.768-44.73,9.077-56.942-6.588 C269.047,199.33,263.915,187.82,276.361,184.086z"></path>
			<path class="shadow-obj" style="opacity: 0.4; fill: rgb(7, 7, 7);" d="M256,189.435c2,0.013,5.54,0.458,6.615,1.333 c1.004,3.46,1.553,6.969,2.728,10.165c6.435,17.51,51.212,21.101,69.666,6.637c1.36-1.066,2.483-4.702,2.66-10.528 c1.441-0.365,2.331-1.661,2.331-3.148v-5.03c0-0.951-0.2-1.848-0.923-2.466c-1.891-1.615-5.486-4.719-7.667-5.49 c-5.517-1.95-37.609-6.255-65.49,2.363c-2.539,0.785-7.921,1.511-9.921,1.695V189.435z M276.361,184.086 c10.839-3.251,43.32-2.451,49.002,0.289c6.573,3.17,8.354,19.17,1.837,23.095c-9.58,5.768-44.73,9.077-56.942-6.588 C269.047,199.33,263.915,187.82,276.361,184.086z"></path>
		</g>
	</g></g>
	</g>
	<rect id="hx-size-control" style="opacity:0;fill:#FFFFFF;" width="256" height="512"></rect>
	<rect id="hx-pos-control" x="256" style="opacity:0;fill:#FFFFFF;" width="256" height="512"></rect>
<desc>Created with Snap</desc><defs></defs></svg>
